# xmcd
#
# Track frame offsets:
#	150
#	13765
#	27708
#	42536
#	60542
#	75325
#	88093
#	114385
#	125762
#	143018
#	159375
#	181597
#	195197
#	209855
#	225245
#	239939
#
# Disc length: 3431 seconds
#
# Revision: 2
# Processed by: cddbd v1.5.1PL0 Copyright (c) Steve Scherf et al.
# Submitted via: audiograbber 1.83.01
#
DISCID=d70d6510
DTITLE=Le grandi voci - La Grande Storia del Jazz CD 3
DYEAR=2000
DGENRE=Jazz
TTITLE0=Billie Holiday - All Of Me
TTITLE1=Ella Fitgerald and Louis Armstrong - Dream A Little Dream Of Me
TTITLE2=Fred Astair - Cheek To Cheek
TTITLE3=Sarah Vaughan - Someone To Watch Over Me
TTITLE4=Nat King Cole - Lush Life
TTITLE5=Billie Holiday - Lover Man
TTITLE6=Ella Fitzgerald - How Long Has This Been Going On
TTITLE7=Anita O´Day - What Is This Thing Called Love
TTITLE8=Billy Eckstine - In The Still Of The Night
TTITLE9=Betty Carter and Carmen Mc Rae - Stolen Moments
TTITLE10=Johnny Hartman and John Coltrane - My One And Only Love
TTITLE11=Dinah Washington - How Deep Is The Ocean?
TTITLE12=Bing Crosby - The Birth Of The Blues
TTITLE13=Nina Simone - I Loves You,Porgy
TTITLE14=Ella Fitzgerald - How High The Moon
TTITLE15=Tony Bennett and Bill Evans - Young And Foolish
EXTD=ID3G:   8 YEAR: 2000
EXTT0=
EXTT1=
EXTT2=
EXTT3=
EXTT4=
EXTT5=
EXTT6=
EXTT7=
EXTT8=
EXTT9=
EXTT10=
EXTT11=
EXTT12=
EXTT13=
EXTT14=
EXTT15=
PLAYORDER=
